<?xml version="1.0" encoding="UTF-8"?>
<svg version="1.1" xmlns="http://www.w3.org/2000/svg" width="1024" height="1024">
<path d="M0 0 C0.66 0 1.32 0 2 0 C4.43381883 7.57339156 6.64327387 15.1883804 8.6875 22.875 C8.90172607 23.67075439 9.11595215 24.46650879 9.33666992 25.28637695 C10.27613894 28.86115205 11.08999021 32.33378607 11.51953125 36.0078125 C11.67808594 36.99523438 11.83664062 37.98265625 12 39 C12.66 39.33 13.32 39.66 14 40 C14.4921875 42.01171875 14.4921875 42.01171875 14.875 44.6875 C15.80000811 50.2805723 17.26259995 55.57598651 18.8671875 61.0078125 C20.19198278 65.57615208 21.30830227 70.19269455 22.4375 74.8125 C23.98415709 81.10956147 25.63371025 87.35252528 27.5 93.5625 C29.3502109 99.7247363 31.09679481 105.90680366 32.75 112.125 C32.96076172 112.90689697 33.17152344 113.68879395 33.38867188 114.49438477 C34.31013144 117.99555345 35.09441931 121.39362587 35.515625 124.9921875 C35.67546875 125.98476562 35.8353125 126.97734375 36 128 C36.66 128.33 37.32 128.66 38 129 C38 129.99 38 130.98 38 132 C38.34081765 133.47675884 38.72544339 134.94363682 39.13671875 136.40234375 C39.38172119 137.28253174 39.62672363 138.16271973 39.87915039 139.06958008 C40.27928345 140.48920044 40.27928345 140.48920044 40.6875 141.9375 C42.75399828 149.37212918 44.73161276 156.81640669 46.5625 164.3125 C48.2404427 171.14876115 50.09888834 177.90179315 52.12524414 184.64233398 C54.39706784 192.23549853 56.38316618 199.89919191 58.37060547 207.57080078 C59.42828862 211.65301463 60.49360574 215.73320858 61.5625 219.8125 C61.76770264 220.59737793 61.97290527 221.38225586 62.18432617 222.19091797 C63.78208202 228.26481008 65.50511823 234.293835 67.30078125 240.3125 C68 243 68 243 68 246 C68.66 246.33 69.32 246.66 70 247 C70 247.99 70 248.98 70 250 C70.54532357 252.63959813 71.12510389 255.25428272 71.75 257.875 C71.93119385 258.64021973 72.1123877 259.40543945 72.29907227 260.19384766 C73.63094023 265.71150404 75.21719831 271.10998884 76.9375 276.51953125 C80.46821497 288.08521888 83.22928565 299.89094163 86.1159668 311.62988281 C87.68524096 317.93176072 89.45301332 324.15877127 91.38867188 330.35791016 C92.37340551 333.56959469 93.07623826 336.57929523 93.515625 339.91796875 C93.67546875 340.93503906 93.8353125 341.95210938 94 343 C94.66 343.33 95.32 343.66 96 344 C96 345.32 96 346.64 96 348 C96.29399714 349.39489044 96.63839774 350.7797921 97.0234375 352.15234375 C97.24 352.92900391 97.4565625 353.70566406 97.6796875 354.50585938 C97.90914062 355.30830078 98.13859375 356.11074219 98.375 356.9375 C98.59671875 357.73607422 98.8184375 358.53464844 99.046875 359.35742188 C100.17080759 363.34738256 101.44548238 367.1546143 103 371 C103.33271399 372.4285577 103.62346168 373.86743801 103.875 375.3125 C104.8946802 380.76449975 106.25889412 386.10707188 107.67919922 391.46606445 C108.54188927 394.80052066 109 397.52451762 109 401 C109.7734375 400.93941406 110.546875 400.87882812 111.34375 400.81640625 C116.32781177 401.06667431 120.74506056 402.48847034 125.5 403.9375 C130.99924915 405.59034267 136.3222968 407.09450423 142 408 C144.01003484 408.63577069 146.00925627 409.30618168 148 410 C150.90829111 410.92403197 153.82801102 411.80789611 156.75 412.6875 C157.51699219 412.92533203 158.28398438 413.16316406 159.07421875 413.40820312 C163.07147611 414.88307885 163.07147611 414.88307885 167 414 C167 414.66 167 415.32 167 416 C168.11375 416.103125 169.2275 416.20625 170.375 416.3125 C174.39776061 416.82232904 178.07272677 417.8404301 181.93359375 419.0546875 C195.96817059 423.38127042 210.25154267 426.93812535 224.45996094 430.64111328 C235.94700487 433.63664728 247.43103614 436.6366617 258.765625 440.17578125 C261.86357541 441.34080932 261.86357541 441.34080932 264 440 C264 440.66 264 441.32 264 442 C265.16982422 442.16242188 265.16982422 442.16242188 266.36328125 442.328125 C271.05612449 443.19511645 275.59357674 444.46717464 280.1875 445.75 C282.16126437 446.2949738 284.13522643 446.83923209 286.109375 447.3828125 C287.09744141 447.65512695 288.08550781 447.92744141 289.10351562 448.20800781 C293.37404494 449.37570817 297.65447134 450.50415796 301.9375 451.625 C302.71818848 451.82963867 303.49887695 452.03427734 304.30322266 452.24511719 C305.82157667 452.64304833 307.33996738 453.0408395 308.85839844 453.43847656 C318.17321109 455.8808009 327.46334719 458.4021857 336.73535156 461.00170898 C344.05684999 463.041225 351.41518906 464.93265299 358.77612305 466.82397461 C365.18735532 468.48534081 371.49143394 470.31877894 377.76953125 472.43359375 C380.01816149 473.26325263 380.01816149 473.26325263 382 472 C382 472.66 382 473.32 382 474 C383.13824219 474.11601562 384.27648437 474.23203125 385.44921875 474.3515625 C390.04701431 474.9279301 394.37194082 476.07871165 398.8125 477.375 C400.29807809 477.79982551 401.78375661 478.22429992 403.26953125 478.6484375 C404.03257568 478.86765869 404.79562012 479.08687988 405.58178711 479.31274414 C415.25563588 482.06205098 424.98630492 484.61581758 434.69970703 487.22094727 C440.28655987 488.72175719 445.86890242 490.23574534 451.44140625 491.7890625 C452.44324951 492.06709717 453.44509277 492.34513184 454.47729492 492.6315918 C456.36797498 493.15742673 458.25752408 493.6873502 460.14575195 494.22192383 C460.99226318 494.4567749 461.83877441 494.69162598 462.7109375 494.93359375 C463.44618652 495.14040771 464.18143555 495.34722168 464.93896484 495.56030273 C467.3007587 496.13909527 467.3007587 496.13909527 471 496 C471 496.66 471 497.32 471 498 C472.14082031 498.11730469 473.28164063 498.23460937 474.45703125 498.35546875 C479.00552203 498.92640483 483.29118596 500.03937878 487.6875 501.3125 C488.85128174 501.64254028 488.85128174 501.64254028 490.03857422 501.97924805 C496.72277557 503.88734876 503.37230199 505.90396123 510 508 C510 508.66 510 509.32 510 510 C502.42660844 512.43381883 494.8116196 514.64327387 487.125 516.6875 C486.32924561 516.90172607 485.53349121 517.11595215 484.71362305 517.33666992 C481.13884795 518.27613894 477.66621393 519.08999021 473.9921875 519.51953125 C472.51105469 519.75736328 472.51105469 519.75736328 471 520 C470.67 520.66 470.34 521.32 470 522 C467.98828125 522.4921875 467.98828125 522.4921875 465.3125 522.875 C459.7194277 523.80000811 454.42401349 525.26259995 448.9921875 526.8671875 C444.42384792 528.19198278 439.80730545 529.30830227 435.1875 530.4375 C428.89043853 531.98415709 422.64747472 533.63371025 416.4375 535.5 C410.2752637 537.3502109 404.09319634 539.09679481 397.875 540.75 C397.09310303 540.96076172 396.31120605 541.17152344 395.50561523 541.38867188 C392.00444655 542.31013144 388.60637413 543.09441931 385.0078125 543.515625 C384.01523437 543.67546875 383.02265625 543.8353125 382 544 C381.67 544.66 381.34 545.32 381 546 C380.01 546 379.02 546 378 546 C376.52324116 546.34081765 375.05636318 546.72544339 373.59765625 547.13671875 C372.71746826 547.38172119 371.83728027 547.62672363 370.93041992 547.87915039 C369.51079956 548.27928345 369.51079956 548.27928345 368.0625 548.6875 C360.62787082 550.75399828 353.18359331 552.73161276 345.6875 554.5625 C338.85123885 556.2404427 332.09820685 558.09888834 325.35766602 560.12524414 C317.76450147 562.39706784 310.10080809 564.38316618 302.42919922 566.37060547 C298.34698537 567.42828862 294.26679142 568.49360574 290.1875 569.5625 C289.40262207 569.76770264 288.61774414 569.97290527 287.80908203 570.18432617 C281.73518992 571.78208202 275.706165 573.50511823 269.6875 575.30078125 C267 576 267 576 264 576 C263.67 576.66 263.34 577.32 263 578 C262.01 578 261.02 578 260 578 C257.36040187 578.54532357 254.74571728 579.12510389 252.125 579.75 C250.97717041 580.02179077 250.97717041 580.02179077 249.80615234 580.29907227 C244.28849596 581.63094023 238.89001116 583.21719831 233.48046875 584.9375 C221.91478112 588.46821497 210.10905837 591.22928565 198.37011719 594.1159668 C192.06823928 595.68524096 185.84122873 597.45301332 179.64208984 599.38867188 C176.43040531 600.37340551 173.42070477 601.07623826 170.08203125 601.515625 C169.06496094 601.67546875 168.04789063 601.8353125 167 602 C166.67 602.66 166.34 603.32 166 604 C164.68 604 163.36 604 162 604 C160.60510956 604.29399714 159.2202079 604.63839774 157.84765625 605.0234375 C157.07099609 605.24 156.29433594 605.4565625 155.49414062 605.6796875 C154.69169922 605.90914062 153.88925781 606.13859375 153.0625 606.375 C152.26392578 606.59671875 151.46535156 606.8184375 150.64257812 607.046875 C146.65261744 608.17080759 142.8453857 609.44548238 139 611 C137.5714423 611.33271399 136.13256199 611.62346168 134.6875 611.875 C129.23550025 612.8946802 123.89292812 614.25889412 118.53393555 615.67919922 C115.19947934 616.54188927 112.47548238 617 109 617 C109.0928125 618.15628906 109.0928125 618.15628906 109.1875 619.3359375 C108.93011653 624.36563944 107.47059956 628.82899062 106 633.625 C105.43261961 635.49071029 104.86992716 637.35785429 104.3125 639.2265625 C103.93544922 640.45753662 103.93544922 640.45753662 103.55078125 641.71337891 C102.84388416 644.25612658 102.84388416 644.25612658 103 648 C102.34 648 101.68 648 101 648 C100.83371094 649.70542969 100.83371094 649.70542969 100.6640625 651.4453125 C99.984051 656.89741884 98.30825137 661.9561074 96.640625 667.171875 C95.13191049 671.11445386 95.13191049 671.11445386 96 675 C95.34 675 94.68 675 94 675 C93.773125 676.258125 93.54625 677.51625 93.3125 678.8125 C91.60694734 687.30473098 89.25080484 695.63986774 87 704 C86.71930664 705.04478516 86.43861328 706.08957031 86.14941406 707.16601562 C84.64569236 712.76256146 83.13875175 718.35822828 81.62890625 723.953125 C80.36677125 728.63261125 79.11661668 733.31503342 77.875 738 C76.49872596 743.17852268 75.07065147 748.34058787 73.625 753.5 C71.64682014 760.56261801 69.77499632 767.64955838 67.9375 774.75 C66.0538033 782.02832382 64.0948187 789.26901574 61.99609375 796.48828125 C60.09035611 803.20694062 58.35809604 809.9725982 56.59375 816.72949219 C54.14626113 826.08872183 51.6097587 835.4207438 48.99829102 844.73535156 C46.958775 852.05684999 45.06734701 859.41518906 43.17602539 866.77612305 C41.51465919 873.18735532 39.68122106 879.49143394 37.56640625 885.76953125 C36.73674737 888.01816149 36.73674737 888.01816149 38 890 C37.34 890 36.68 890 36 890 C35.88398437 891.13824219 35.76796875 892.27648437 35.6484375 893.44921875 C35.0720699 898.04701431 33.92128835 902.37194082 32.625 906.8125 C32.20017449 908.29807809 31.77570008 909.78375661 31.3515625 911.26953125 C31.13234131 912.03257568 30.91312012 912.79562012 30.68725586 913.58178711 C27.93794902 923.25563588 25.38418242 932.98630492 22.77905273 942.69970703 C21.27824281 948.28655987 19.76425466 953.86890242 18.2109375 959.44140625 C17.93290283 960.44324951 17.65486816 961.44509277 17.3684082 962.47729492 C16.84257327 964.36797498 16.3126498 966.25752408 15.77807617 968.14575195 C15.5432251 968.99226318 15.30837402 969.83877441 15.06640625 970.7109375 C14.85959229 971.44618652 14.65277832 972.18143555 14.43969727 972.93896484 C13.86090473 975.3007587 13.86090473 975.3007587 14 979 C13.34 979 12.68 979 12 979 C11.82404297 980.71123047 11.82404297 980.71123047 11.64453125 982.45703125 C11.07359517 987.00552203 9.96062122 991.29118596 8.6875 995.6875 C8.35745972 996.85128174 8.35745972 996.85128174 8.02075195 998.03857422 C6.11265124 1004.72277557 4.09603877 1011.37230199 2 1018 C1.34 1018 0.68 1018 0 1018 C-2.43381883 1010.42660844 -4.64327387 1002.8116196 -6.6875 995.125 C-6.90172607 994.32924561 -7.11595215 993.53349121 -7.33666992 992.71362305 C-8.27613894 989.13884795 -9.08999021 985.66621393 -9.51953125 981.9921875 C-9.75736328 980.51105469 -9.75736328 980.51105469 -10 979 C-10.66 978.67 -11.32 978.34 -12 978 C-12.4921875 975.98828125 -12.4921875 975.98828125 -12.875 973.3125 C-13.80000811 967.7194277 -15.26259995 962.42401349 -16.8671875 956.9921875 C-18.19198278 952.42384792 -19.30830227 947.80730545 -20.4375 943.1875 C-21.98415709 936.89043853 -23.63371025 930.64747472 -25.5 924.4375 C-27.3502109 918.2752637 -29.09679481 912.09319634 -30.75 905.875 C-30.96076172 905.09310303 -31.17152344 904.31120605 -31.38867188 903.50561523 C-32.31013144 900.00444655 -33.09441931 896.60637413 -33.515625 893.0078125 C-33.75539063 891.51894531 -33.75539063 891.51894531 -34 890 C-34.66 889.67 -35.32 889.34 -36 889 C-36 888.01 -36 887.02 -36 886 C-36.34081765 884.52324116 -36.72544339 883.05636318 -37.13671875 881.59765625 C-37.38172119 880.71746826 -37.62672363 879.83728027 -37.87915039 878.93041992 C-38.14590576 877.98400635 -38.41266113 877.03759277 -38.6875 876.0625 C-40.75399828 868.62787082 -42.73161276 861.18359331 -44.5625 853.6875 C-46.2404427 846.85123885 -48.09888834 840.09820685 -50.12524414 833.35766602 C-52.39706784 825.76450147 -54.38316618 818.10080809 -56.37060547 810.42919922 C-57.42828848 806.3469859 -58.49341511 802.2667411 -59.5625 798.1875 C-59.77205322 797.38739502 -59.98160645 796.58729004 -60.19750977 795.76293945 C-61.38351711 791.26020283 -62.62822922 786.78133331 -63.9375 782.3125 C-65.80199722 775.89621403 -67.40267822 769.42494656 -69 762.9375 C-70.80225741 755.62666689 -72.71150103 748.40797611 -75.0078125 741.234375 C-78.52867853 729.7569062 -81.25017718 718.02410113 -84.1159668 706.37011719 C-85.68524096 700.06823928 -87.45301332 693.84122873 -89.38867188 687.64208984 C-90.37340551 684.43040531 -91.07623826 681.42070477 -91.515625 678.08203125 C-91.75539063 676.55642578 -91.75539063 676.55642578 -92 675 C-92.66 674.67 -93.32 674.34 -94 674 C-94 672.68 -94 671.36 -94 670 C-94.31623345 668.59242474 -94.68429283 667.19583529 -95.09375 665.8125 C-95.31933594 665.03132812 -95.54492188 664.25015625 -95.77734375 663.4453125 C-96.01582031 662.63835938 -96.25429688 661.83140625 -96.5 661 C-96.97364933 659.39727308 -97.44257483 657.79314087 -97.90625 656.1875 C-98.11572266 655.47980469 -98.32519531 654.77210938 -98.54101562 654.04296875 C-99 652 -99 652 -99 648 C-99.66 647.67 -100.32 647.34 -101 647 C-101.4921875 645.27734375 -101.4921875 645.27734375 -101.875 642.9375 C-102.87034524 637.39085836 -104.23579327 631.97852372 -105.67919922 626.53491211 C-106.54155248 623.20012598 -107 620.47574023 -107 617 C-108.15628906 617.0928125 -108.15628906 617.0928125 -109.3359375 617.1875 C-114.36563944 616.93011653 -118.82899062 615.47059956 -123.625 614 C-125.49071029 613.43261961 -127.35785429 612.86992716 -129.2265625 612.3125 C-130.04721191 612.06113281 -130.86786133 611.80976562 -131.71337891 611.55078125 C-134.25612658 610.84388416 -134.25612658 610.84388416 -138 611 C-138 610.34 -138 609.68 -138 609 C-139.70542969 608.83371094 -139.70542969 608.83371094 -141.4453125 608.6640625 C-146.89741884 607.984051 -151.9561074 606.30825137 -157.171875 604.640625 C-161.11445386 603.13191049 -161.11445386 603.13191049 -165 604 C-165 603.34 -165 602.68 -165 602 C-166.258125 601.773125 -167.51625 601.54625 -168.8125 601.3125 C-177.30473098 599.60694734 -185.63986774 597.25080484 -194 595 C-195.04478516 594.71930664 -196.08957031 594.43861328 -197.16601562 594.14941406 C-202.76256146 592.64569236 -208.35822828 591.13875175 -213.953125 589.62890625 C-218.63261125 588.36677125 -223.31503342 587.11661668 -228 585.875 C-233.17852268 584.49872596 -238.34058787 583.07065147 -243.5 581.625 C-250.56261801 579.64682014 -257.64955838 577.77499632 -264.75 575.9375 C-272.02832382 574.0538033 -279.26901574 572.0948187 -286.48828125 569.99609375 C-293.20694062 568.09035611 -299.9725982 566.35809604 -306.72949219 564.59375 C-316.08872183 562.14626113 -325.4207438 559.6097587 -334.73535156 556.99829102 C-342.05684999 554.958775 -349.41518906 553.06734701 -356.77612305 551.17602539 C-363.18735532 549.51465919 -369.49143394 547.68122106 -375.76953125 545.56640625 C-378.01816149 544.73674737 -378.01816149 544.73674737 -380 546 C-380 545.34 -380 544.68 -380 544 C-381.13824219 543.88398437 -382.27648437 543.76796875 -383.44921875 543.6484375 C-388.04701431 543.0720699 -392.37194082 541.92128835 -396.8125 540.625 C-398.29807809 540.20017449 -399.78375661 539.77570008 -401.26953125 539.3515625 C-402.03257568 539.13234131 -402.79562012 538.91312012 -403.58178711 538.68725586 C-413.25563588 535.93794902 -422.98630492 533.38418242 -432.69970703 530.77905273 C-438.28655987 529.27824281 -443.86890242 527.76425466 -449.44140625 526.2109375 C-450.44324951 525.93290283 -451.44509277 525.65486816 -452.47729492 525.3684082 C-454.36797498 524.84257327 -456.25752408 524.3126498 -458.14575195 523.77807617 C-458.99226318 523.5432251 -459.83877441 523.30837402 -460.7109375 523.06640625 C-461.44618652 522.85959229 -462.18143555 522.65277832 -462.93896484 522.43969727 C-465.3007587 521.86090473 -465.3007587 521.86090473 -469 522 C-469 521.34 -469 520.68 -469 520 C-470.14082031 519.88269531 -471.28164063 519.76539063 -472.45703125 519.64453125 C-477.00552203 519.07359517 -481.29118596 517.96062122 -485.6875 516.6875 C-486.46335449 516.46747314 -487.23920898 516.24744629 -488.03857422 516.02075195 C-494.72277557 514.11265124 -501.37230199 512.09603877 -508 510 C-508 509.34 -508 508.68 -508 508 C-500.42660844 505.56618117 -492.8116196 503.35672613 -485.125 501.3125 C-483.93136841 500.99116089 -483.93136841 500.99116089 -482.71362305 500.66333008 C-479.13884795 499.72386106 -475.66621393 498.91000979 -471.9921875 498.48046875 C-471.00476563 498.32191406 -470.01734375 498.16335938 -469 498 C-468.67 497.34 -468.34 496.68 -468 496 C-465.98828125 495.5078125 -465.98828125 495.5078125 -463.3125 495.125 C-457.7194277 494.19999189 -452.42401349 492.73740005 -446.9921875 491.1328125 C-442.42384792 489.80801722 -437.80730545 488.69169773 -433.1875 487.5625 C-426.89043853 486.01584291 -420.64747472 484.36628975 -414.4375 482.5 C-408.2752637 480.6497891 -402.09319634 478.90320519 -395.875 477.25 C-394.70215454 476.93385742 -394.70215454 476.93385742 -393.50561523 476.61132812 C-390.00444655 475.68986856 -386.60637413 474.90558069 -383.0078125 474.484375 C-381.51894531 474.24460937 -381.51894531 474.24460937 -380 474 C-379.67 473.34 -379.34 472.68 -379 472 C-378.01 472 -377.02 472 -376 472 C-374.52324116 471.65918235 -373.05636318 471.27455661 -371.59765625 470.86328125 C-370.71746826 470.61827881 -369.83728027 470.37327637 -368.93041992 470.12084961 C-367.98400635 469.85409424 -367.03759277 469.58733887 -366.0625 469.3125 C-358.62787082 467.24600172 -351.18359331 465.26838724 -343.6875 463.4375 C-336.85123885 461.7595573 -330.09820685 459.90111166 -323.35766602 457.87475586 C-315.76450147 455.60293216 -308.10080809 453.61683382 -300.42919922 451.62939453 C-296.3469859 450.57171152 -292.2667411 449.50658489 -288.1875 448.4375 C-287.38739502 448.22794678 -286.58729004 448.01839355 -285.76293945 447.80249023 C-281.26020283 446.61648289 -276.78133331 445.37177078 -272.3125 444.0625 C-265.89621403 442.19800278 -259.42494656 440.59732178 -252.9375 439 C-245.62666689 437.19774259 -238.40797611 435.28849897 -231.234375 432.9921875 C-219.7569062 429.47132147 -208.02410113 426.74982282 -196.37011719 423.8840332 C-190.06823928 422.31475904 -183.84122873 420.54698668 -177.64208984 418.61132812 C-174.43040531 417.62659449 -171.42070477 416.92376174 -168.08203125 416.484375 C-166.55642578 416.24460937 -166.55642578 416.24460937 -165 416 C-164.67 415.34 -164.34 414.68 -164 414 C-162.68 414 -161.36 414 -160 414 C-158.59242474 413.68376655 -157.19583529 413.31570717 -155.8125 412.90625 C-155.03132813 412.68066406 -154.25015625 412.45507812 -153.4453125 412.22265625 C-152.63835937 411.98417969 -151.83140625 411.74570312 -151 411.5 C-149.39727308 411.02635067 -147.79314087 410.55742517 -146.1875 410.09375 C-145.47980469 409.88427734 -144.77210938 409.67480469 -144.04296875 409.45898438 C-142 409 -142 409 -138 409 C-137.67 408.34 -137.34 407.68 -137 407 C-135.27734375 406.5078125 -135.27734375 406.5078125 -132.9375 406.125 C-127.39085836 405.12965476 -121.97852372 403.76420673 -116.53491211 402.32080078 C-113.20012598 401.45844752 -110.47574023 401 -107 401 C-107.06058594 400.2265625 -107.12117188 399.453125 -107.18359375 398.65625 C-106.93332569 393.67218823 -105.51152966 389.25493944 -104.0625 384.5 C-102.40965733 379.00075085 -100.90549577 373.6777032 -100 368 C-99.36422931 365.98996516 -98.69381832 363.99074373 -98 362 C-97.07596803 359.09170889 -96.19210389 356.17198898 -95.3125 353.25 C-95.07466797 352.48300781 -94.83683594 351.71601563 -94.59179688 350.92578125 C-93.11692115 346.92852389 -93.11692115 346.92852389 -94 343 C-93.34 343 -92.68 343 -92 343 C-91.896875 341.88625 -91.79375 340.7725 -91.6875 339.625 C-91.17767096 335.60223939 -90.1595699 331.92727323 -88.9453125 328.06640625 C-84.61872958 314.03182941 -81.06187465 299.74845733 -77.35888672 285.54003906 C-74.36335272 274.05299513 -71.3633383 262.56896386 -67.82421875 251.234375 C-66.65919068 248.13642459 -66.65919068 248.13642459 -68 246 C-67.34 246 -66.68 246 -66 246 C-65.83757812 244.83017578 -65.83757812 244.83017578 -65.671875 243.63671875 C-64.80488355 238.94387551 -63.53282536 234.40642326 -62.25 229.8125 C-61.7050262 227.83873563 -61.16076791 225.86477357 -60.6171875 223.890625 C-60.34487305 222.90255859 -60.07255859 221.91449219 -59.79199219 220.89648438 C-58.62429183 216.62595506 -57.49584204 212.34552866 -56.375 208.0625 C-56.06804199 206.89146729 -56.06804199 206.89146729 -55.75488281 205.69677734 C-55.35695167 204.17842333 -54.9591605 202.66003262 -54.56152344 201.14160156 C-52.1191991 191.82678891 -49.5978143 182.53665281 -46.99829102 173.26464844 C-44.958775 165.94315001 -43.06734701 158.58481094 -41.17602539 151.22387695 C-39.51465919 144.81264468 -37.68122106 138.50856606 -35.56640625 132.23046875 C-34.73674737 129.98183851 -34.73674737 129.98183851 -36 128 C-35.34 128 -34.68 128 -34 128 C-33.88398438 126.86175781 -33.76796875 125.72351563 -33.6484375 124.55078125 C-33.0720699 119.95298569 -31.92128835 115.62805918 -30.625 111.1875 C-30.20017449 109.70192191 -29.77570008 108.21624339 -29.3515625 106.73046875 C-29.13234131 105.96742432 -28.91312012 105.20437988 -28.68725586 104.41821289 C-25.93794902 94.74436412 -23.38418242 85.01369508 -20.77905273 75.30029297 C-19.27824281 69.71344013 -17.76425466 64.13109758 -16.2109375 58.55859375 C-15.93290283 57.55675049 -15.65486816 56.55490723 -15.3684082 55.52270508 C-14.84257327 53.63202502 -14.3126498 51.74247592 -13.77807617 49.85424805 C-13.5432251 49.00773682 -13.30837402 48.16122559 -13.06640625 47.2890625 C-12.85959229 46.55381348 -12.65277832 45.81856445 -12.43969727 45.06103516 C-11.86090473 42.6992413 -11.86090473 42.6992413 -12 39 C-11.34 39 -10.68 39 -10 39 C-9.88269531 37.85917969 -9.76539063 36.71835937 -9.64453125 35.54296875 C-9.07359517 30.99447797 -7.96062122 26.70881404 -6.6875 22.3125 C-6.35745972 21.14871826 -6.35745972 21.14871826 -6.02075195 19.96142578 C-4.11265124 13.27722443 -2.09603877 6.62769801 0 0 Z " fill="#FFFF00" transform="translate(511,0)"/>
<path d="" fill="#FFFF00" transform="translate(0,0)"/>
<path d="" fill="#FFFF00" transform="translate(0,0)"/>
<path d="" fill="#FFFF00" transform="translate(0,0)"/>
<path d="" fill="#FFFF00" transform="translate(0,0)"/>
<path d="" fill="#FFFF00" transform="translate(0,0)"/>
<path d="" fill="#FFFF00" transform="translate(0,0)"/>
<path d="" fill="#FFFF00" transform="translate(0,0)"/>
<path d="" fill="#FFFF00" transform="translate(0,0)"/>
<path d="" fill="#FFFF00" transform="translate(0,0)"/>
<path d="" fill="#FFFF00" transform="translate(0,0)"/>
<path d="" fill="#FFFF00" transform="translate(0,0)"/>
<path d="" fill="#FFFF00" transform="translate(0,0)"/>
<path d="" fill="#FFFF00" transform="translate(0,0)"/>
<path d="" fill="#FFFF00" transform="translate(0,0)"/>
<path d="" fill="#FFFF00" transform="translate(0,0)"/>
<path d="" fill="#FFFF00" transform="translate(0,0)"/>
<path d="" fill="#FFFF00" transform="translate(0,0)"/>
<path d="" fill="#FFFF00" transform="translate(0,0)"/>
<path d="" fill="#FFFF00" transform="translate(0,0)"/>
<path d="" fill="#FFFF00" transform="translate(0,0)"/>
<path d="" fill="#FFFF00" transform="translate(0,0)"/>
<path d="" fill="#FFFF00" transform="translate(0,0)"/>
<path d="" fill="#FFFF00" transform="translate(0,0)"/>
<path d="" fill="#FFFF00" transform="translate(0,0)"/>
<path d="" fill="#FFFF00" transform="translate(0,0)"/>
<path d="" fill="#FFFF00" transform="translate(0,0)"/>
<path d="" fill="#FFFF00" transform="translate(0,0)"/>
<path d="" fill="#FFFF00" transform="translate(0,0)"/>
</svg>
